<mxfile host="app.diagrams.net" agent="Mozilla/5.0 (Windows NT 10.0; Win64; x64) AppleWebKit/537.36 (KHTML, like Gecko) Chrome/134.0.0.0 Safari/537.36 Edg/134.0.0.0" version="26.1.1">
  <diagram name="Страница — 1" id="-NGB3kIXnoKimgW1RQPI">
    <mxGraphModel dx="719" dy="390" grid="1" gridSize="10" guides="1" tooltips="1" connect="1" arrows="1" fold="1" page="1" pageScale="1" pageWidth="827" pageHeight="1169" math="0" shadow="0">
      <root>
        <mxCell id="0" />
        <mxCell id="1" parent="0" />
        <mxCell id="TRbBUo7FvGrTuPnzwdAs-1" value="Процесс создания голосования за предложение" style="swimlane;html=1;startSize=20;fontStyle=0;collapsible=0;horizontal=1;swimlaneLine=1;strokeWidth=2;swimlaneFillColor=#ffffff;whiteSpace=wrap;" vertex="1" parent="1">
          <mxGeometry x="30" y="130" width="1200" height="200" as="geometry" />
        </mxCell>
        <mxCell id="TRbBUo7FvGrTuPnzwdAs-2" value="Пользователь" style="swimlane;html=1;startSize=20;fontStyle=0;collapsible=0;horizontal=0;swimlaneLine=1;swimlaneFillColor=#ffffff;strokeWidth=2;whiteSpace=wrap;" vertex="1" parent="TRbBUo7FvGrTuPnzwdAs-1">
          <mxGeometry y="21" width="1200" height="140" as="geometry" />
        </mxCell>
        <mxCell id="TRbBUo7FvGrTuPnzwdAs-3" value="" style="points=[[0.145,0.145,0],[0.5,0,0],[0.855,0.145,0],[1,0.5,0],[0.855,0.855,0],[0.5,1,0],[0.145,0.855,0],[0,0.5,0]];shape=mxgraph.bpmn.event;html=1;verticalLabelPosition=bottom;labelBackgroundColor=#ffffff;verticalAlign=top;align=center;perimeter=ellipsePerimeter;outlineConnect=0;aspect=fixed;outline=standard;symbol=general;" vertex="1" parent="TRbBUo7FvGrTuPnzwdAs-2">
          <mxGeometry x="50" y="63" width="30" height="30" as="geometry" />
        </mxCell>
        <mxCell id="TRbBUo7FvGrTuPnzwdAs-4" value="Создать голосование" style="text;html=1;align=center;verticalAlign=middle;whiteSpace=wrap;rounded=0;" vertex="1" parent="TRbBUo7FvGrTuPnzwdAs-2">
          <mxGeometry x="35" y="98" width="60" height="30" as="geometry" />
        </mxCell>
        <mxCell id="TRbBUo7FvGrTuPnzwdAs-5" value="" style="edgeStyle=elbowEdgeStyle;fontSize=12;html=1;endArrow=blockThin;endFill=1;rounded=0;exitX=1;exitY=0.5;exitDx=0;exitDy=0;exitPerimeter=0;entryX=0;entryY=0.5;entryDx=0;entryDy=0;entryPerimeter=0;" edge="1" parent="TRbBUo7FvGrTuPnzwdAs-2" source="TRbBUo7FvGrTuPnzwdAs-3">
          <mxGeometry width="160" relative="1" as="geometry">
            <mxPoint x="330" y="158" as="sourcePoint" />
            <mxPoint x="120" y="78" as="targetPoint" />
          </mxGeometry>
        </mxCell>
        <mxCell id="TRbBUo7FvGrTuPnzwdAs-6" value="Заполнить шаблон голосования за предложения" style="points=[[0.25,0,0],[0.5,0,0],[0.75,0,0],[1,0.25,0],[1,0.5,0],[1,0.75,0],[0.75,1,0],[0.5,1,0],[0.25,1,0],[0,0.75,0],[0,0.5,0],[0,0.25,0]];shape=mxgraph.bpmn.task2;whiteSpace=wrap;rectStyle=rounded;size=10;html=1;container=1;expand=0;collapsible=0;taskMarker=abstract;" vertex="1" parent="TRbBUo7FvGrTuPnzwdAs-2">
          <mxGeometry x="120" y="48" width="110" height="60" as="geometry" />
        </mxCell>
        <mxCell id="TRbBUo7FvGrTuPnzwdAs-7" value="Указано 2 и более вариантов ответов?" style="text;html=1;align=center;verticalAlign=middle;whiteSpace=wrap;rounded=0;" vertex="1" parent="TRbBUo7FvGrTuPnzwdAs-2">
          <mxGeometry x="245" y="16" width="60" height="30" as="geometry" />
        </mxCell>
        <mxCell id="TRbBUo7FvGrTuPnzwdAs-8" value="" style="edgeStyle=elbowEdgeStyle;fontSize=12;html=1;endArrow=blockThin;endFill=1;rounded=0;exitX=1;exitY=0.5;exitDx=0;exitDy=0;exitPerimeter=0;" edge="1" parent="TRbBUo7FvGrTuPnzwdAs-2">
          <mxGeometry width="160" relative="1" as="geometry">
            <mxPoint x="230" y="78" as="sourcePoint" />
            <mxPoint x="260" y="78" as="targetPoint" />
          </mxGeometry>
        </mxCell>
        <mxCell id="TRbBUo7FvGrTuPnzwdAs-9" value="" style="points=[[0.25,0.25,0],[0.5,0,0],[0.75,0.25,0],[1,0.5,0],[0.75,0.75,0],[0.5,1,0],[0.25,0.75,0],[0,0.5,0]];shape=mxgraph.bpmn.gateway2;html=1;verticalLabelPosition=bottom;labelBackgroundColor=#ffffff;verticalAlign=top;align=center;perimeter=rhombusPerimeter;outlineConnect=0;outline=none;symbol=none;gwType=exclusive;" vertex="1" parent="TRbBUo7FvGrTuPnzwdAs-2">
          <mxGeometry x="257.5" y="60.5" width="35" height="35" as="geometry" />
        </mxCell>
        <mxCell id="TRbBUo7FvGrTuPnzwdAs-13" value="Проголосовать, добавить комментарий" style="points=[[0.25,0,0],[0.5,0,0],[0.75,0,0],[1,0.25,0],[1,0.5,0],[1,0.75,0],[0.75,1,0],[0.5,1,0],[0.25,1,0],[0,0.75,0],[0,0.5,0],[0,0.25,0]];shape=mxgraph.bpmn.task2;whiteSpace=wrap;rectStyle=rounded;size=10;html=1;container=1;expand=0;collapsible=0;taskMarker=abstract;" vertex="1" parent="TRbBUo7FvGrTuPnzwdAs-2">
          <mxGeometry x="510" y="46" width="100" height="60" as="geometry" />
        </mxCell>
        <mxCell id="TRbBUo7FvGrTuPnzwdAs-14" value="Завершить голосование" style="points=[[0.25,0,0],[0.5,0,0],[0.75,0,0],[1,0.25,0],[1,0.5,0],[1,0.75,0],[0.75,1,0],[0.5,1,0],[0.25,1,0],[0,0.75,0],[0,0.5,0],[0,0.25,0]];shape=mxgraph.bpmn.task2;whiteSpace=wrap;rectStyle=rounded;size=10;html=1;container=1;expand=0;collapsible=0;taskMarker=abstract;" vertex="1" parent="TRbBUo7FvGrTuPnzwdAs-2">
          <mxGeometry x="873" y="40" width="100" height="60" as="geometry" />
        </mxCell>
        <mxCell id="TRbBUo7FvGrTuPnzwdAs-35" value="" style="edgeStyle=elbowEdgeStyle;fontSize=12;html=1;endArrow=blockThin;endFill=1;rounded=0;exitX=1;exitY=0.5;exitDx=0;exitDy=0;exitPerimeter=0;entryX=0.5;entryY=0;entryDx=0;entryDy=0;entryPerimeter=0;" edge="1" parent="TRbBUo7FvGrTuPnzwdAs-2" source="TRbBUo7FvGrTuPnzwdAs-9" target="TRbBUo7FvGrTuPnzwdAs-6">
          <mxGeometry width="160" relative="1" as="geometry">
            <mxPoint x="260" y="129" as="sourcePoint" />
            <mxPoint x="420" y="129" as="targetPoint" />
            <Array as="points">
              <mxPoint x="310" y="99" />
            </Array>
          </mxGeometry>
        </mxCell>
        <mxCell id="TRbBUo7FvGrTuPnzwdAs-36" value="Да" style="text;html=1;strokeColor=none;fillColor=none;align=center;verticalAlign=middle;whiteSpace=wrap;rounded=0;" vertex="1" parent="TRbBUo7FvGrTuPnzwdAs-2">
          <mxGeometry x="212.5" y="78" width="80" height="30" as="geometry" />
        </mxCell>
        <mxCell id="TRbBUo7FvGrTuPnzwdAs-37" value="Нет" style="text;html=1;strokeColor=none;fillColor=none;align=center;verticalAlign=middle;whiteSpace=wrap;rounded=0;" vertex="1" parent="TRbBUo7FvGrTuPnzwdAs-2">
          <mxGeometry x="257.5" y="78" width="80" height="30" as="geometry" />
        </mxCell>
        <mxCell id="TRbBUo7FvGrTuPnzwdAs-15" value="Сервер" style="swimlane;html=1;startSize=20;fontStyle=0;collapsible=0;horizontal=0;swimlaneLine=1;swimlaneFillColor=#ffffff;strokeWidth=2;whiteSpace=wrap;" vertex="1" parent="1">
          <mxGeometry x="30" y="290" width="1200" height="160" as="geometry" />
        </mxCell>
        <mxCell id="TRbBUo7FvGrTuPnzwdAs-16" value="" style="points=[[0.145,0.145,0],[0.5,0,0],[0.855,0.145,0],[1,0.5,0],[0.855,0.855,0],[0.5,1,0],[0.145,0.855,0],[0,0.5,0]];shape=mxgraph.bpmn.event;html=1;verticalLabelPosition=bottom;labelBackgroundColor=#ffffff;verticalAlign=top;align=center;perimeter=ellipsePerimeter;outlineConnect=0;aspect=fixed;outline=standard;symbol=message;" vertex="1" parent="TRbBUo7FvGrTuPnzwdAs-15">
          <mxGeometry x="315" y="60" width="30" height="30" as="geometry" />
        </mxCell>
        <mxCell id="TRbBUo7FvGrTuPnzwdAs-17" value="Предоставление данных" style="text;html=1;align=center;verticalAlign=middle;whiteSpace=wrap;rounded=0;" vertex="1" parent="TRbBUo7FvGrTuPnzwdAs-15">
          <mxGeometry x="300" y="30" width="60" height="30" as="geometry" />
        </mxCell>
        <mxCell id="TRbBUo7FvGrTuPnzwdAs-18" value="" style="dashed=1;dashPattern=8 4;endArrow=blockThin;endFill=1;startArrow=oval;startFill=0;endSize=6;startSize=4;html=1;rounded=0;exitX=0.5;exitY=1;exitDx=0;exitDy=0;exitPerimeter=0;" edge="1" parent="TRbBUo7FvGrTuPnzwdAs-15" source="TRbBUo7FvGrTuPnzwdAs-16">
          <mxGeometry width="160" relative="1" as="geometry">
            <mxPoint x="350" y="145" as="sourcePoint" />
            <mxPoint x="330" y="170" as="targetPoint" />
          </mxGeometry>
        </mxCell>
        <mxCell id="TRbBUo7FvGrTuPnzwdAs-19" value="" style="points=[[0.145,0.145,0],[0.5,0,0],[0.855,0.145,0],[1,0.5,0],[0.855,0.855,0],[0.5,1,0],[0.145,0.855,0],[0,0.5,0]];shape=mxgraph.bpmn.event;html=1;verticalLabelPosition=bottom;labelBackgroundColor=#ffffff;verticalAlign=top;align=center;perimeter=ellipsePerimeter;outlineConnect=0;aspect=fixed;outline=standard;symbol=message;" vertex="1" parent="TRbBUo7FvGrTuPnzwdAs-15">
          <mxGeometry x="663" y="62" width="30" height="30" as="geometry" />
        </mxCell>
        <mxCell id="TRbBUo7FvGrTuPnzwdAs-20" value="Предоставление данных" style="text;html=1;align=center;verticalAlign=middle;whiteSpace=wrap;rounded=0;" vertex="1" parent="TRbBUo7FvGrTuPnzwdAs-15">
          <mxGeometry x="648" y="32" width="60" height="30" as="geometry" />
        </mxCell>
        <mxCell id="TRbBUo7FvGrTuPnzwdAs-21" value="" style="dashed=1;dashPattern=8 4;endArrow=blockThin;endFill=1;startArrow=oval;startFill=0;endSize=6;startSize=4;html=1;rounded=0;exitX=0.5;exitY=1;exitDx=0;exitDy=0;exitPerimeter=0;" edge="1" parent="TRbBUo7FvGrTuPnzwdAs-15" source="TRbBUo7FvGrTuPnzwdAs-19">
          <mxGeometry width="160" relative="1" as="geometry">
            <mxPoint x="698" y="147" as="sourcePoint" />
            <mxPoint x="678" y="172" as="targetPoint" />
          </mxGeometry>
        </mxCell>
        <mxCell id="TRbBUo7FvGrTuPnzwdAs-22" value="Предоставление данных" style="text;html=1;align=center;verticalAlign=middle;whiteSpace=wrap;rounded=0;" vertex="1" parent="TRbBUo7FvGrTuPnzwdAs-15">
          <mxGeometry x="1013" y="96" width="60" height="30" as="geometry" />
        </mxCell>
        <mxCell id="TRbBUo7FvGrTuPnzwdAs-23" value="" style="points=[[0.145,0.145,0],[0.5,0,0],[0.855,0.145,0],[1,0.5,0],[0.855,0.855,0],[0.5,1,0],[0.145,0.855,0],[0,0.5,0]];shape=mxgraph.bpmn.event;html=1;verticalLabelPosition=bottom;labelBackgroundColor=#ffffff;verticalAlign=top;align=center;perimeter=ellipsePerimeter;outlineConnect=0;aspect=fixed;outline=standard;symbol=message;" vertex="1" parent="TRbBUo7FvGrTuPnzwdAs-15">
          <mxGeometry x="1028" y="60" width="30" height="30" as="geometry" />
        </mxCell>
        <mxCell id="TRbBUo7FvGrTuPnzwdAs-24" value="" style="dashed=1;dashPattern=8 4;endArrow=blockThin;endFill=1;startArrow=oval;startFill=0;endSize=6;startSize=4;html=1;rounded=0;exitX=0.5;exitY=1;exitDx=0;exitDy=0;exitPerimeter=0;" edge="1" parent="TRbBUo7FvGrTuPnzwdAs-15" source="TRbBUo7FvGrTuPnzwdAs-23">
          <mxGeometry width="160" relative="1" as="geometry">
            <mxPoint x="1063" y="145" as="sourcePoint" />
            <mxPoint x="1043" y="170" as="targetPoint" />
          </mxGeometry>
        </mxCell>
        <mxCell id="TRbBUo7FvGrTuPnzwdAs-25" value="" style="points=[[0.145,0.145,0],[0.5,0,0],[0.855,0.145,0],[1,0.5,0],[0.855,0.855,0],[0.5,1,0],[0.145,0.855,0],[0,0.5,0]];shape=mxgraph.bpmn.event;html=1;verticalLabelPosition=bottom;labelBackgroundColor=#ffffff;verticalAlign=top;align=center;perimeter=ellipsePerimeter;outlineConnect=0;aspect=fixed;outline=end;symbol=terminate;" vertex="1" parent="TRbBUo7FvGrTuPnzwdAs-15">
          <mxGeometry x="1143" y="60" width="30" height="30" as="geometry" />
        </mxCell>
        <mxCell id="TRbBUo7FvGrTuPnzwdAs-26" value="" style="edgeStyle=elbowEdgeStyle;fontSize=12;html=1;endArrow=blockThin;endFill=1;rounded=0;exitX=1;exitY=0.5;exitDx=0;exitDy=0;exitPerimeter=0;entryX=0;entryY=0.5;entryDx=0;entryDy=0;entryPerimeter=0;" edge="1" parent="TRbBUo7FvGrTuPnzwdAs-15" source="TRbBUo7FvGrTuPnzwdAs-23" target="TRbBUo7FvGrTuPnzwdAs-25">
          <mxGeometry width="160" relative="1" as="geometry">
            <mxPoint x="933" y="100" as="sourcePoint" />
            <mxPoint x="1093" y="100" as="targetPoint" />
          </mxGeometry>
        </mxCell>
        <mxCell id="TRbBUo7FvGrTuPnzwdAs-38" value="Создать голосование" style="points=[[0.25,0,0],[0.5,0,0],[0.75,0,0],[1,0.25,0],[1,0.5,0],[1,0.75,0],[0.75,1,0],[0.5,1,0],[0.25,1,0],[0,0.75,0],[0,0.5,0],[0,0.25,0]];shape=mxgraph.bpmn.task2;whiteSpace=wrap;rectStyle=rounded;size=10;html=1;container=1;expand=0;collapsible=0;taskMarker=abstract;" vertex="1" parent="TRbBUo7FvGrTuPnzwdAs-15">
          <mxGeometry x="370" y="45" width="100" height="60" as="geometry" />
        </mxCell>
        <mxCell id="TRbBUo7FvGrTuPnzwdAs-30" value="" style="edgeStyle=elbowEdgeStyle;fontSize=12;html=1;endArrow=blockThin;endFill=1;rounded=0;exitX=1;exitY=0.5;exitDx=0;exitDy=0;exitPerimeter=0;entryX=0;entryY=0.5;entryDx=0;entryDy=0;entryPerimeter=0;" edge="1" parent="TRbBUo7FvGrTuPnzwdAs-15" source="TRbBUo7FvGrTuPnzwdAs-16" target="TRbBUo7FvGrTuPnzwdAs-38">
          <mxGeometry width="160" relative="1" as="geometry">
            <mxPoint x="310" y="-30" as="sourcePoint" />
            <mxPoint x="470" y="-30" as="targetPoint" />
          </mxGeometry>
        </mxCell>
        <mxCell id="TRbBUo7FvGrTuPnzwdAs-40" value="Изменить статус голосования" style="points=[[0.25,0,0],[0.5,0,0],[0.75,0,0],[1,0.25,0],[1,0.5,0],[1,0.75,0],[0.75,1,0],[0.5,1,0],[0.25,1,0],[0,0.75,0],[0,0.5,0],[0,0.25,0]];shape=mxgraph.bpmn.task2;whiteSpace=wrap;rectStyle=rounded;size=10;html=1;container=1;expand=0;collapsible=0;taskMarker=abstract;" vertex="1" parent="TRbBUo7FvGrTuPnzwdAs-15">
          <mxGeometry x="720" y="47" width="100" height="60" as="geometry" />
        </mxCell>
        <mxCell id="TRbBUo7FvGrTuPnzwdAs-32" value="" style="edgeStyle=elbowEdgeStyle;fontSize=12;html=1;endArrow=blockThin;endFill=1;rounded=0;exitX=1;exitY=0.5;exitDx=0;exitDy=0;exitPerimeter=0;entryX=0;entryY=0.5;entryDx=0;entryDy=0;entryPerimeter=0;" edge="1" parent="TRbBUo7FvGrTuPnzwdAs-15" source="TRbBUo7FvGrTuPnzwdAs-19" target="TRbBUo7FvGrTuPnzwdAs-40">
          <mxGeometry width="160" relative="1" as="geometry">
            <mxPoint x="744" y="10" as="sourcePoint" />
            <mxPoint x="904" y="10" as="targetPoint" />
          </mxGeometry>
        </mxCell>
        <mxCell id="TRbBUo7FvGrTuPnzwdAs-27" value="" style="swimlane;html=1;startSize=20;fontStyle=0;collapsible=0;horizontal=0;swimlaneLine=0;fillColor=none;whiteSpace=wrap;" vertex="1" parent="1">
          <mxGeometry x="31" y="460" width="1199" height="30" as="geometry" />
        </mxCell>
        <mxCell id="TRbBUo7FvGrTuPnzwdAs-28" value="База данных" style="text;html=1;align=center;verticalAlign=middle;resizable=0;points=[];autosize=1;strokeColor=none;fillColor=none;" vertex="1" parent="TRbBUo7FvGrTuPnzwdAs-27">
          <mxGeometry x="345" width="90" height="30" as="geometry" />
        </mxCell>
        <mxCell id="TRbBUo7FvGrTuPnzwdAs-29" value="" style="edgeStyle=elbowEdgeStyle;fontSize=12;html=1;endArrow=blockThin;endFill=1;rounded=0;exitX=0.5;exitY=1;exitDx=0;exitDy=0;exitPerimeter=0;entryX=0;entryY=0.5;entryDx=0;entryDy=0;entryPerimeter=0;" edge="1" parent="1" source="TRbBUo7FvGrTuPnzwdAs-9" target="TRbBUo7FvGrTuPnzwdAs-16">
          <mxGeometry width="160" relative="1" as="geometry">
            <mxPoint x="270" y="300" as="sourcePoint" />
            <mxPoint x="430" y="300" as="targetPoint" />
            <Array as="points">
              <mxPoint x="305" y="300" />
            </Array>
          </mxGeometry>
        </mxCell>
        <mxCell id="TRbBUo7FvGrTuPnzwdAs-31" value="" style="edgeStyle=elbowEdgeStyle;fontSize=12;html=1;endArrow=blockThin;endFill=1;rounded=0;exitX=1;exitY=0.5;exitDx=0;exitDy=0;exitPerimeter=0;entryX=0;entryY=0.5;entryDx=0;entryDy=0;entryPerimeter=0;" edge="1" parent="1" source="TRbBUo7FvGrTuPnzwdAs-13" target="TRbBUo7FvGrTuPnzwdAs-19">
          <mxGeometry width="160" relative="1" as="geometry">
            <mxPoint x="764" y="227" as="sourcePoint" />
            <mxPoint x="799" y="302" as="targetPoint" />
            <Array as="points">
              <mxPoint x="660" y="300" />
            </Array>
          </mxGeometry>
        </mxCell>
        <mxCell id="TRbBUo7FvGrTuPnzwdAs-33" value="" style="edgeStyle=elbowEdgeStyle;fontSize=12;html=1;endArrow=blockThin;endFill=1;rounded=0;exitX=1;exitY=0.5;exitDx=0;exitDy=0;exitPerimeter=0;entryX=0;entryY=0.5;entryDx=0;entryDy=0;entryPerimeter=0;" edge="1" parent="1" source="TRbBUo7FvGrTuPnzwdAs-14" target="TRbBUo7FvGrTuPnzwdAs-23">
          <mxGeometry width="160" relative="1" as="geometry">
            <mxPoint x="923" y="330" as="sourcePoint" />
            <mxPoint x="1083" y="330" as="targetPoint" />
          </mxGeometry>
        </mxCell>
        <mxCell id="TRbBUo7FvGrTuPnzwdAs-39" value="" style="edgeStyle=elbowEdgeStyle;fontSize=12;html=1;endArrow=blockThin;endFill=1;rounded=0;exitX=1;exitY=0.5;exitDx=0;exitDy=0;exitPerimeter=0;entryX=0;entryY=0.5;entryDx=0;entryDy=0;entryPerimeter=0;" edge="1" parent="1" source="TRbBUo7FvGrTuPnzwdAs-38" target="TRbBUo7FvGrTuPnzwdAs-13">
          <mxGeometry width="160" relative="1" as="geometry">
            <mxPoint x="490" y="310" as="sourcePoint" />
            <mxPoint x="650" y="310" as="targetPoint" />
          </mxGeometry>
        </mxCell>
        <mxCell id="TRbBUo7FvGrTuPnzwdAs-41" value="" style="edgeStyle=elbowEdgeStyle;fontSize=12;html=1;endArrow=blockThin;endFill=1;rounded=0;exitX=1;exitY=0.5;exitDx=0;exitDy=0;exitPerimeter=0;entryX=0;entryY=0.5;entryDx=0;entryDy=0;entryPerimeter=0;" edge="1" parent="1" source="TRbBUo7FvGrTuPnzwdAs-40" target="TRbBUo7FvGrTuPnzwdAs-14">
          <mxGeometry width="160" relative="1" as="geometry">
            <mxPoint x="610" y="350" as="sourcePoint" />
            <mxPoint x="770" y="350" as="targetPoint" />
          </mxGeometry>
        </mxCell>
      </root>
    </mxGraphModel>
  </diagram>
</mxfile>
